<svg xmlns="http://www.w3.org/2000/svg" version="1.1" xmlns:xlink="http://www.w3.org/1999/xlink" xmlns:svgjs="http://svgjs.dev/svgjs" width="1000" height="1000" viewBox="0 0 1000 1000"><rect width="1000" height="1000" fill="#000000"></rect><g transform="matrix(0.7,0,0,0.7,149.57575757575756,282.1265587044535)"><svg viewBox="0 0 396 247" data-background-color="#282634" preserveAspectRatio="xMidYMid meet" height="623" width="1000" xmlns="http://www.w3.org/2000/svg" xmlns:xlink="http://www.w3.org/1999/xlink"><g id="tight-bounds" transform="matrix(1,0,0,1,0.2400000000000091,-0.09999999999999432)"><svg viewBox="0 0 395.52 247.2" height="247.2" width="395.52"><g><svg></svg></g><g><svg viewBox="0 0 395.52 247.2" height="247.2" width="395.52"><g transform="matrix(1,0,0,1,39.55200000000002,98.55445589492072)"><svg viewBox="0 0 316.41599999999994 50.09108821015856" height="50.09108821015856" width="316.41599999999994"><g><svg viewBox="0 0 317.99807999999996 50.34154365120935" height="50.09108821015856" width="316.41599999999994"><g><svg viewBox="0 0 317.99807999999996 50.34154365120935" height="50.34154365120935" width="317.99807999999996"><g id="textblocktransform"><svg viewBox="0 0 317.99807999999996 50.34154365120935" height="50.34154365120935" width="317.99807999999996" id="textblock"><g><rect width="317.99807999999996" height="2.1591104488687334" x="0" y="26.48541236604992" fill="#ffffff" opacity="1" stroke-width="0" stroke="transparent" fill-opacity="1" class="rect-o-0" data-fill-palette-color="primary" rx="1%" id="o-0" data-palette-color="#ff4057"></rect></g><g transform="matrix(1,0,0,1,0.7910399999999811,0)"><svg viewBox="0 0 316.416 23.94195764879618" height="23.94195764879618" width="316.416"><g transform="matrix(1,0,0,1,0,0)"><svg width="316.416" viewBox="-0.39000001549720764 -37.84000015258789 520.7311401367188 39.400001525878906" height="23.94195764879618" data-palette-color="#ff4057"><path d="M-0.39-29.25L-0.39-29.25Q-0.39-29.69-0.34-30.55-0.29-31.42-0.29-31.74L-0.29-31.74Q-0.29-31.86-0.34-32.62-0.39-33.37-0.39-33.94L-0.39-33.94Q-0.39-36.52 0.1-36.52L0.1-36.52Q0.29-36.52 0.44-36.47L0.44-36.47Q5.54-36.47 15.56-36.6 25.59-36.72 30.57-36.72L30.57-36.72Q31.81-36.72 32.14-36.5 32.47-36.28 32.47-35.64L32.47-35.64 32.47-34.96Q32.47-33.69 32.5-31.21 32.52-28.74 32.52-27.44L32.52-27.44Q32.52-26.17 31.84-26.17L31.84-26.17Q30.47-26.17 27.76-26.22 25.05-26.27 23.68-26.27L23.68-26.27 23.68-0.1Q23.51 0.63 22.85 0.68L22.85 0.68Q22 0.68 20.36 0.66 18.73 0.63 17.87 0.63L17.87 0.63Q17.82 0.63 17.77 0.68L17.77 0.68Q16.7 0.68 14.76 0.66 12.82 0.63 11.87 0.63L11.87 0.63 10.4 0.63Q9.91 0.68 8.98 0.68L8.98 0.68 8.01-0.49Q8.01-4.2 8.25-11.52 8.5-18.85 8.5-22.56L8.5-22.56Q8.5-22.73 8.48-23.12 8.47-23.51 8.47-23.75 8.47-24 8.44-24.37 8.4-24.73 8.31-24.96 8.23-25.2 8.11-25.43 7.98-25.66 7.78-25.77 7.57-25.88 7.28-25.88L7.28-25.88 0.29-25.88Q-0.39-26.07-0.39-29.25ZM34.42-0.88L34.42-0.88 34.42-1.81Q34.42-5.98 34.52-14.14 34.62-22.29 34.62-26.46L34.62-26.46 34.62-36.57 63.03-36.57 63.03-28.56Q63.03-28.49 63.03-28.2 63.03-27.91 63.03-27.81 63.03-27.71 63.01-27.45 62.99-27.2 62.92-27.1 62.86-27 62.75-26.82 62.64-26.64 62.5-26.56 62.35-26.49 62.11-26.43 61.86-26.37 61.57-26.37L61.57-26.37 60.89-26.37Q54.56-26.37 49.36-26.56L49.36-26.56Q49.31-26.17 49.2-25.35 49.09-24.54 49.03-23.91 48.97-23.29 48.97-22.71L48.97-22.71 60.59-22.71Q61.33-22.71 61.57-22.51 61.81-22.31 61.81-21.88L61.81-21.88Q61.81-21.75 61.79-21.48 61.77-21.22 61.77-21.09L61.77-21.09Q61.77-19.92 61.84-17.63 61.91-15.33 61.91-14.16L61.91-14.16Q61.84-13.67 61.52-13.67L61.52-13.67Q61.37-13.67 61.28-13.77L61.28-13.77Q53.56-13.38 49.85-13.38L49.85-13.38 49.22-13.38 49.22-9.86Q51.39-9.86 55.5-10.06 59.62-10.25 61.67-10.25L61.67-10.25Q63.28-10.25 63.52-9.57L63.52-9.57 63.52-7.71Q63.52-6.54 63.57-4.25 63.62-1.95 63.62-0.78L63.62-0.78Q63.62 0.44 62.64 0.44L62.64 0.44Q61.37 0.44 58.74 0.42 56.1 0.39 54.73 0.39L54.73 0.39Q51.22 0.39 44.68 0.57 38.13 0.76 35.2 0.78L35.2 0.78 34.52 0Q34.42-0.68 34.42-0.88ZM101.36-13.09L101.36-13.09Q100.95-9.42 99.43-6.6 97.92-3.78 95.55-2.01 93.18-0.24 90.17 0.66 87.15 1.56 83.59 1.56L83.59 1.56Q80.27 1.56 77.53 0.84 74.8 0.12 72.92-1.07 71.04-2.27 69.6-3.99 68.16-5.71 67.3-7.53 66.45-9.35 65.93-11.51 65.4-13.67 65.22-15.54 65.03-17.41 65.03-19.43L65.03-19.43 65.03-21.58Q65.28-25.15 66.69-27.99 68.11-30.83 70.14-32.58 72.16-34.33 74.78-35.49 77.39-36.65 79.85-37.1 82.32-37.55 84.76-37.55L84.76-37.55Q88.69-37.55 91.71-36.61 94.72-35.67 96.63-33.96 98.53-32.25 99.6-30.04 100.68-27.83 100.97-25.1L100.97-25.1 100.97-22.75Q100.97-21.97 95.6-21.97L95.6-21.97Q94.33-21.97 92.07-22.02 89.81-22.07 89.11-22.07L89.11-22.07Q88.98-22.07 88.74-22.05 88.5-22.02 88.37-22.02L88.37-22.02Q87.74-22.02 87.41-22.55 87.08-23.07 86.97-23.83 86.86-24.58 86.7-25.34 86.54-26.1 86.04-26.62 85.54-27.15 84.66-27.15 83.78-27.15 83.12-26.86 82.47-26.56 82.08-25.94 81.68-25.32 81.43-24.68 81.17-24.05 81.06-23.03 80.95-22.02 80.92-21.33 80.88-20.63 80.85-19.47 80.83-18.31 80.81-17.77L80.81-17.77Q80.81-17.48 80.76-16.7 80.71-15.92 80.71-15.43L80.71-15.43Q80.71-9.35 83.93-9.18L83.93-9.18Q84.81-9.18 85.37-9.81 85.93-10.45 86.14-11.23 86.35-12.01 86.62-12.88 86.88-13.75 87.2-14.06L87.2-14.06 100.48-14.06Q101.29-13.99 101.36-13.09ZM119.82 0.63L104.05 0.63Q104.14-6.47 104.39-9.77L104.39-9.77Q104.39-20.02 104.68-30.57L104.68-30.57Q104.58-32.62 104.58-33.59L104.58-33.59 104.58-34.33Q104.48-35.4 104.48-36.08L104.48-36.08Q104.48-36.55 104.92-36.91L104.92-36.91Q108.93-36.62 117.13-36.62L117.13-36.62Q119.08-36.62 119.82-36.72L119.82-36.72 119.82 0.63ZM125.62 0.68L124.55 0.1 124.55-10.94Q124.5-16.99 124.94-34.03L124.94-34.03 124.94-36.04Q124.94-36.57 125.14-36.67L125.14-36.67 141.93-36.67Q142.18-36.67 142.92-34.81 143.67-32.96 144.73-30.04 145.79-27.12 146.23-26.03L146.23-26.03 149.65-17.09 149.65-26.56Q149.65-27.78 149.71-31.04 149.77-34.3 149.75-36.13L149.75-36.13Q149.75-36.82 153.65-36.82L153.65-36.82Q154.87-36.82 157-36.77 159.12-36.72 159.61-36.72L159.61-36.72 161.46-36.72Q161.86-36.72 161.86-36.57L161.86-36.57Q162-29.79 162-17.14L162-17.14 162-0.2Q161.83 0.44 160.44 0.44L160.44 0.44 159.8 0.44Q158.53 0.44 156.07 0.49 153.6 0.54 152.33 0.54L152.33 0.54 145.16 0.54Q144.81 0.42 143.74-2.54L143.74-2.54Q142.59-5.74 140.32-11.79 138.05-17.85 137.78-18.55L137.78-18.55Q137.78-17.11 137.76-14.26 137.73-11.4 137.73-9.96L137.73-9.96Q137.73-8.89 137.78-6.74 137.83-4.59 137.83-3.52L137.83-3.52 137.83-0.44Q137.83 0.68 136.86 0.68L136.86 0.68 125.62 0.68ZM161.86-36.52L161.86-36.62 161.86-36.52ZM164.34-29.25L164.34-29.25Q164.34-29.69 164.39-30.55 164.44-31.42 164.44-31.74L164.44-31.74Q164.44-31.86 164.39-32.62 164.34-33.37 164.34-33.94L164.34-33.94Q164.34-36.52 164.83-36.52L164.83-36.52Q165.03-36.52 165.17-36.47L165.17-36.47Q170.28-36.47 180.3-36.6 190.32-36.72 195.3-36.72L195.3-36.72Q196.55-36.72 196.87-36.5 197.2-36.28 197.2-35.64L197.2-35.64 197.2-34.96Q197.2-33.69 197.23-31.21 197.25-28.74 197.25-27.44L197.25-27.44Q197.25-26.17 196.57-26.17L196.57-26.17Q195.2-26.17 192.49-26.22 189.78-26.27 188.42-26.27L188.42-26.27 188.42-0.1Q188.24 0.63 187.59 0.68L187.59 0.68Q186.73 0.68 185.09 0.66 183.46 0.63 182.6 0.63L182.6 0.63Q182.56 0.63 182.51 0.68L182.51 0.68Q181.43 0.68 179.49 0.66 177.55 0.63 176.6 0.63L176.6 0.63 175.13 0.63Q174.65 0.68 173.72 0.68L173.72 0.68 172.74-0.49Q172.74-4.2 172.99-11.52 173.23-18.85 173.23-22.56L173.23-22.56Q173.23-22.73 173.22-23.12 173.21-23.51 173.21-23.75 173.21-24 173.17-24.37 173.13-24.73 173.05-24.96 172.96-25.2 172.84-25.43 172.72-25.66 172.51-25.77 172.3-25.88 172.01-25.88L172.01-25.88 165.03-25.88Q164.34-26.07 164.34-29.25ZM199.15-0.88L199.15-0.88 199.15-1.81Q199.15-5.98 199.25-14.14 199.35-22.29 199.35-26.46L199.35-26.46 199.35-36.57 227.77-36.57 227.77-28.56Q227.77-28.49 227.77-28.2 227.77-27.91 227.77-27.81 227.77-27.71 227.74-27.45 227.72-27.2 227.66-27.1 227.6-27 227.49-26.82 227.38-26.64 227.23-26.56 227.08-26.49 226.84-26.43 226.6-26.37 226.3-26.37L226.3-26.37 225.62-26.37Q219.3-26.37 214.1-26.56L214.1-26.56Q214.05-26.17 213.94-25.35 213.83-24.54 213.77-23.91 213.71-23.29 213.71-22.71L213.71-22.71 225.33-22.71Q226.06-22.71 226.3-22.51 226.55-22.31 226.55-21.88L226.55-21.88Q226.55-21.75 226.52-21.48 226.5-21.22 226.5-21.09L226.5-21.09Q226.5-19.92 226.57-17.63 226.65-15.33 226.65-14.16L226.65-14.16Q226.57-13.67 226.25-13.67L226.25-13.67Q226.11-13.67 226.01-13.77L226.01-13.77Q218.3-13.38 214.58-13.38L214.58-13.38 213.95-13.38 213.95-9.86Q216.12-9.86 220.24-10.06 224.35-10.25 226.4-10.25L226.4-10.25Q228.01-10.25 228.26-9.57L228.26-9.57 228.26-7.71Q228.26-6.54 228.31-4.25 228.35-1.95 228.35-0.78L228.35-0.78Q228.35 0.44 227.38 0.44L227.38 0.44Q226.11 0.44 223.47 0.42 220.83 0.39 219.47 0.39L219.47 0.39Q215.95 0.39 209.41 0.57 202.87 0.76 199.94 0.78L199.94 0.78 199.25 0Q199.15-0.68 199.15-0.88ZM266.68 0.1L266.68 0.1Q266.14 0.63 264.42 0.73 262.7 0.83 260.19 0.68 257.67 0.54 257.5 0.54L257.5 0.54Q255.84 0.54 255.11 0.49L255.11 0.49 252.67 0.49Q252.13 0.32 251.76-1.11 251.4-2.54 251.04-5.21 250.69-7.89 250.67-8.06L250.67-8.06Q250.57-10.47 249.88-11.24 249.2-12.01 247.39-12.01L247.39-12.01 246.32-12.01 246.32-0.1Q246.27 0.2 245.81 0.39 245.34 0.59 244.48 0.65 243.61 0.71 242.94 0.72 242.27 0.73 241.17 0.71 240.07 0.68 239.83 0.68L239.83 0.68 236.31 0.68Q233.33 0.68 231.82 0.73L231.82 0.73Q231.48 0.59 231.13 0.39L231.13 0.39 231.13-36.04Q231.13-36.72 233.09-36.72L233.09-36.72 254.38-36.72Q259.92-36.57 262.81-34.08 265.71-31.59 265.71-27.05L265.71-27.05Q265.71-21.14 259.75-18.41L259.75-18.41Q260.85-18.07 261.73-17.46 262.6-16.85 263.19-16.15 263.78-15.45 264.22-14.48 264.66-13.5 264.9-12.65 265.14-11.79 265.33-10.62 265.51-9.45 265.58-8.59 265.66-7.74 265.77-6.56 265.88-5.37 265.95-4.69L265.95-4.69 265.95-2.54Q266.02-2.15 266.4-1.44 266.78-0.73 266.88-0.39L266.88-0.39Q266.88 0.1 266.68 0.1ZM246.17-26.37L246.17-26.37Q246.17-24.9 246.2-24.19 246.22-23.49 246.47-22.34 246.71-21.19 247.2-20.7L247.2-20.7Q248.22-20.7 249.14-20.92 250.06-21.14 250.91-21.63 251.76-22.12 252.27-23.08 252.77-24.05 252.77-25.39L252.77-25.39Q252.77-26.15 252.5-26.72 252.23-27.29 251.72-27.64 251.2-27.98 250.7-28.19 250.2-28.39 249.48-28.48 248.76-28.56 248.35-28.59 247.93-28.61 247.35-28.61L247.35-28.61 246.76-28.61Q246.39-28.44 246.28-27.93 246.17-27.42 246.17-26.37ZM265.7 0L265.7 0Q267.22-5.59 269.05-11.35 270.88-17.11 273.6-25.13 276.32-33.15 277.32-36.23L277.32-36.23Q277.62-36.72 277.71-36.82L277.71-36.82 281.82-36.82Q283.26-36.82 286.06-36.87 288.87-36.91 290.31-36.91L290.31-36.91 294.41-36.91Q294.78-36.91 295.02-36.9 295.27-36.89 295.61-36.84 295.95-36.79 296.16-36.69 296.37-36.6 296.51-36.4 296.66-36.21 296.66-35.94L296.66-35.94 307.91-0.27Q307.91 0.22 307.56 0.4 307.21 0.59 306.23 0.59L306.23 0.59 303.98 0.59Q303.01 0.59 301.08 0.61 299.15 0.63 298.17 0.63L298.17 0.63Q297.88 0.63 296.99 0.67 296.1 0.71 295.49 0.7 294.88 0.68 294.13 0.62 293.39 0.56 292.94 0.35 292.48 0.15 292.36-0.2L292.36-0.2 292.36-1.81Q292.12-3.03 291.51-4.05 290.9-5.08 290.21-5.08L290.21-5.08 281.82-5.08 280.55 0.1Q280.28 0.68 277.81 0.68L277.81 0.68 275.86 0.68Q274.81 0.68 272.73 0.76 270.66 0.83 269.61 0.83L269.61 0.83 268.93 0.83Q268.53 0.83 267.69 0.85 266.85 0.88 266.39 0.88L266.39 0.88Q266.19 0.68 265.7 0ZM284.6-23.29L282.65-14.82 283.33-13.67 284.94-13.67Q286.89-13.67 288.52-13.9 290.14-14.14 290.14-14.65L290.14-14.65 286.99-28.71Q286.55-28.71 285.81-27.05 285.06-25.39 284.6-23.29L284.6-23.29ZM344.17-13.09L344.17-13.09Q343.75-9.42 342.24-6.6 340.72-3.78 338.36-2.01 335.99-0.24 332.97 0.66 329.96 1.56 326.39 1.56L326.39 1.56Q323.07 1.56 320.34 0.84 317.6 0.12 315.72-1.07 313.84-2.27 312.4-3.99 310.96-5.71 310.11-7.53 309.25-9.35 308.73-11.51 308.21-13.67 308.02-15.54 307.84-17.41 307.84-19.43L307.84-19.43 307.84-21.58Q308.08-25.15 309.5-27.99 310.92-30.83 312.94-32.58 314.97-34.33 317.58-35.49 320.19-36.65 322.66-37.1 325.12-37.55 327.57-37.55L327.57-37.55Q331.5-37.55 334.51-36.61 337.53-35.67 339.43-33.96 341.33-32.25 342.41-30.04 343.48-27.83 343.78-25.1L343.78-25.1 343.78-22.75Q343.78-21.97 338.41-21.97L338.41-21.97Q337.14-21.97 334.88-22.02 332.62-22.07 331.91-22.07L331.91-22.07Q331.79-22.07 331.54-22.05 331.3-22.02 331.18-22.02L331.18-22.02Q330.54-22.02 330.21-22.55 329.88-23.07 329.77-23.83 329.67-24.58 329.51-25.34 329.35-26.1 328.85-26.62 328.35-27.15 327.47-27.15 326.59-27.15 325.93-26.86 325.27-26.56 324.88-25.94 324.49-25.32 324.23-24.68 323.98-24.05 323.87-23.03 323.76-22.02 323.72-21.33 323.68-20.63 323.66-19.47 323.63-18.31 323.61-17.77L323.61-17.77Q323.61-17.48 323.56-16.7 323.51-15.92 323.51-15.43L323.51-15.43Q323.51-9.35 326.74-9.18L326.74-9.18Q327.61-9.18 328.18-9.81 328.74-10.45 328.94-11.23 329.15-12.01 329.42-12.88 329.69-13.75 330.01-14.06L330.01-14.06 343.29-14.06Q344.09-13.99 344.17-13.09ZM344.46-29.25L344.46-29.25Q344.46-29.69 344.51-30.55 344.56-31.42 344.56-31.74L344.56-31.74Q344.56-31.86 344.51-32.62 344.46-33.37 344.46-33.94L344.46-33.94Q344.46-36.52 344.95-36.52L344.95-36.52Q345.14-36.52 345.29-36.47L345.29-36.47Q350.39-36.47 360.41-36.6 370.43-36.72 375.41-36.72L375.41-36.72Q376.66-36.72 376.99-36.5 377.32-36.28 377.32-35.64L377.32-35.64 377.32-34.96Q377.32-33.69 377.34-31.21 377.37-28.74 377.37-27.44L377.37-27.44Q377.37-26.17 376.68-26.17L376.68-26.17Q375.32-26.17 372.61-26.22 369.9-26.27 368.53-26.27L368.53-26.27 368.53-0.1Q368.36 0.63 367.7 0.68L367.7 0.68Q366.85 0.68 365.21 0.66 363.57 0.63 362.72 0.63L362.72 0.63Q362.67 0.63 362.62 0.68L362.62 0.68Q361.55 0.68 359.61 0.66 357.67 0.63 356.71 0.63L356.71 0.63 355.25 0.63Q354.76 0.68 353.83 0.68L353.83 0.68 352.86-0.49Q352.86-4.2 353.1-11.52 353.34-18.85 353.34-22.56L353.34-22.56Q353.34-22.73 353.33-23.12 353.32-23.51 353.32-23.75 353.32-24 353.28-24.37 353.25-24.73 353.16-24.96 353.08-25.2 352.95-25.43 352.83-25.66 352.62-25.77 352.42-25.88 352.12-25.88L352.12-25.88 345.14-25.88Q344.46-26.07 344.46-29.25ZM375.22 0.39L374.44-0.34 374.44-1.07Q374.44-1.44 374.46-2.23 374.48-3.03 374.48-3.52L374.48-3.52 374.48-4.79Q374.48-10.74 375.27-10.74L375.27-10.74 385.28-10.74Q387.62-10.74 387.62-10.06L387.62-10.06Q387.72-5.37 387.72-2.88L387.72-2.88 387.72-2.05Q387.72-1.88 387.74-1.53 387.77-1.17 387.77-0.98L387.77-0.98Q387.77 0.39 387.23 0.39L387.23 0.39 375.22 0.39ZM427.9-13.09L427.9-13.09Q427.48-9.42 425.97-6.6 424.46-3.78 422.09-2.01 419.72-0.24 416.71 0.66 413.69 1.56 410.13 1.56L410.13 1.56Q406.81 1.56 404.07 0.84 401.34 0.12 399.46-1.07 397.58-2.27 396.14-3.99 394.7-5.71 393.84-7.53 392.99-9.35 392.46-11.51 391.94-13.67 391.75-15.54 391.57-17.41 391.57-19.43L391.57-19.43 391.57-21.58Q391.82-25.15 393.23-27.99 394.65-30.83 396.67-32.58 398.7-34.33 401.31-35.49 403.93-36.65 406.39-37.1 408.86-37.55 411.3-37.55L411.3-37.55Q415.23-37.55 418.24-36.61 421.26-35.67 423.16-33.96 425.07-32.25 426.14-30.04 427.22-27.83 427.51-25.1L427.51-25.1 427.51-22.75Q427.51-21.97 422.14-21.97L422.14-21.97Q420.87-21.97 418.61-22.02 416.35-22.07 415.64-22.07L415.64-22.07Q415.52-22.07 415.28-22.05 415.03-22.02 414.91-22.02L414.91-22.02Q414.28-22.02 413.95-22.55 413.62-23.07 413.51-23.83 413.4-24.58 413.24-25.34 413.08-26.1 412.58-26.62 412.08-27.15 411.2-27.15 410.32-27.15 409.66-26.86 409-26.56 408.61-25.94 408.22-25.32 407.97-24.68 407.71-24.05 407.6-23.03 407.49-22.02 407.45-21.33 407.42-20.63 407.39-19.47 407.37-18.31 407.34-17.77L407.34-17.77Q407.34-17.48 407.29-16.7 407.25-15.92 407.25-15.43L407.25-15.43Q407.25-9.35 410.47-9.18L410.47-9.18Q411.35-9.18 411.91-9.81 412.47-10.45 412.68-11.23 412.89-12.01 413.15-12.88 413.42-13.75 413.74-14.06L413.74-14.06 427.02-14.06Q427.83-13.99 427.9-13.09ZM429.17-18.36L429.17-18.36 429.17-21.04Q429.41-24.46 430.66-27.28 431.9-30.1 433.82-32.03 435.73-33.96 438.25-35.29 440.76-36.62 443.51-37.23 446.26-37.84 449.19-37.84L449.19-37.84Q450.8-37.84 452.54-37.57 454.29-37.3 456.24-36.72 458.2-36.13 459.99-35 461.78-33.86 462.96-32.32L462.96-32.32Q465.37-29.37 466.46-26.14 467.55-22.9 467.55-18.95L467.55-18.95Q467.62-10.69 463.93-5.66L463.93-5.66 462.86-4.2Q461.44-2.25 458.81-0.94 456.17 0.37 453.53 0.87 450.9 1.37 448.21 1.37L448.21 1.37Q445.06 1.37 442.4 0.73 439.74 0.1 437.81-0.98 435.88-2.05 434.37-3.59 432.85-5.13 431.89-6.84 430.92-8.54 430.3-10.55 429.68-12.55 429.42-14.45 429.17-16.36 429.17-18.36ZM448.6-28.03L448.6-28.03Q447.6-28.03 446.81-27.56 446.01-27.1 445.51-26.44 445.01-25.78 444.65-24.67 444.28-23.56 444.11-22.67 443.94-21.78 443.84-20.42 443.74-19.07 443.73-18.32 443.72-17.58 443.72-16.41L443.72-16.41Q443.72-15.28 443.8-14.27 443.89-13.26 444.17-12.12 444.45-10.99 444.9-10.14 445.35-9.3 446.15-8.73 446.94-8.15 447.97-8.11L447.97-8.11Q449.04-8.11 449.87-8.46 450.7-8.81 451.26-9.36 451.82-9.91 452.21-10.84 452.6-11.77 452.81-12.62 453.02-13.48 453.13-14.75 453.24-16.02 453.26-16.93 453.29-17.85 453.29-19.24L453.29-19.24Q453.29-20.26 453.23-21.14 453.17-22.02 453.02-23.1 452.87-24.17 452.53-24.99 452.19-25.81 451.7-26.53 451.21-27.25 450.42-27.64 449.63-28.03 448.6-28.03ZM520.18-9.13L520.18-9.13Q520.18-8.69 520.23-7.78 520.28-6.86 520.3-6.03 520.33-5.2 520.34-4.19 520.35-3.17 520.27-2.36 520.18-1.54 520.01-0.82 519.84-0.1 519.48 0.29 519.13 0.68 518.62 0.68L518.62 0.68 507.48 0.68Q506.31-0.22 506.31-6.05L506.31-6.05Q506.31-8.18 506.34-11.17 506.36-14.16 506.36-15.43L506.36-15.43 506.36-17.14Q506.36-17.36 506.32-17.98 506.29-18.6 506.31-18.95L506.31-18.95Q505.34-15.41 503.92-8.81 502.5-2.22 501.97 0L501.97 0Q501.72 0.68 499.72 0.68L499.72 0.68 491.08 0.68Q489.49 0.68 489.22-0.15L489.22-0.15 486.88-10.35Q486.56-11.91 486.18-13.6 485.8-15.28 485.29-17.43 484.78-19.58 484.54-20.61L484.54-20.61Q484.24-12.79 484.24-8.69L484.24-8.69 484.24-4.39Q484.24-1.51 484.29-0.05L484.29-0.05Q484.14 0.49 483.75 0.49L483.75 0.49 481.46 0.49Q480.02 0.49 477.24 0.51 474.45 0.54 473.01 0.54L473.01 0.54Q471.69 0.54 471.69 0.1L471.69 0.1 471.69-36.13Q471.69-36.35 471.8-36.51 471.91-36.67 472.15-36.76 472.38-36.84 472.6-36.89 472.82-36.94 473.16-36.95 473.5-36.96 473.72-36.98 473.94-36.99 474.28-36.98 474.62-36.96 474.72-36.96L474.72-36.96 477.6-36.96Q484.56-36.96 487.4-36.77 490.25-36.57 491.76-36.57L491.76-36.57Q492.35-33.3 493.62-26.86L493.62-26.86 495.47-17.14 499.38-36.87Q499.38-36.87 499.57-36.82 499.77-36.77 499.87-36.77L499.87-36.77Q502.48-36.77 507.58-36.84 512.68-36.91 515.3-36.91L515.3-36.91 518.91-36.91Q519.59-36.84 519.59-35.55L519.59-35.55Q520.13-11.89 520.18-9.13Z" opacity="1" transform="matrix(1,0,0,1,0,0)" fill="#ffffff" class="undefined-text-0" data-fill-palette-color="primary" id="text-0"></path></svg></g></svg></g><g transform="matrix(1,0,0,1,0,31.187977532172397)"><svg viewBox="0 0 226.5834681014644 19.153566119036945" height="19.153566119036945" width="226.5834681014644"><g transform="matrix(1,0,0,1,0,0)"><svg width="226.5834681014644" viewBox="1 -37 563.0499877929688 47.599998474121094" height="19.153566119036945" data-palette-color="#f7eded"><path d="M27.4-32.25L15.7-32.25 15.7 0 12.7 0 12.7-32.25 1-32.25 1-34.9 27.4-34.9 27.4-32.25ZM38.95 0.6L38.95 0.6Q36.4 0.6 34.32-0.3 32.25-1.2 30.77-2.93 29.3-4.65 28.52-7.15 27.75-9.65 27.75-12.8L27.75-12.8Q27.75-15.95 28.52-18.43 29.3-20.9 30.77-22.63 32.25-24.35 34.3-25.28 36.35-26.2 38.9-26.2L38.9-26.2Q41.35-26.2 43.35-25.28 45.35-24.35 46.75-22.7 48.15-21.05 48.92-18.73 49.7-16.4 49.7-13.6L49.7-13.6 49.7-12.25 30.75-12.25 30.75-11Q30.75-9 31.32-7.33 31.9-5.65 32.97-4.45 34.05-3.25 35.6-2.58 37.15-1.9 39.1-1.9L39.1-1.9Q44.7-1.9 46.85-7.05L46.85-7.05 48.95-5.65Q47.75-2.8 45.17-1.1 42.6 0.6 38.95 0.6ZM38.9-23.8L38.9-23.8Q37.05-23.8 35.55-23.13 34.05-22.45 32.97-21.25 31.9-20.05 31.32-18.38 30.75-16.7 30.75-14.7L30.75-14.7 30.75-14.45 46.6-14.45 46.6-14.85Q46.6-16.85 46.05-18.53 45.5-20.2 44.47-21.35 43.45-22.5 42.02-23.15 40.6-23.8 38.9-23.8ZM65.95 0.6L65.95 0.6Q60.65 0.6 57.77-2.9 54.9-6.4 54.9-12.8L54.9-12.8Q54.9-19.2 57.77-22.7 60.65-26.2 65.95-26.2L65.95-26.2Q69.5-26.2 71.7-24.65 73.9-23.1 75.05-20.55L75.05-20.55 72.65-19.35Q71.75-21.45 70.12-22.55 68.5-23.65 65.95-23.65L65.95-23.65Q62.05-23.65 60-21.15 57.95-18.65 57.95-14.6L57.95-14.6 57.95-11Q57.95-6.95 60-4.45 62.05-1.95 65.95-1.95L65.95-1.95Q68.59-1.95 70.4-3.1 72.2-4.25 73.3-6.4L73.3-6.4 75.4-5Q74.15-2.45 71.82-0.93 69.5 0.6 65.95 0.6ZM81.74 0L81.74-37 84.59-37 84.59-21.55 84.74-21.55Q85.59-23.55 87.39-24.88 89.19-26.2 92.29-26.2L92.29-26.2Q96.39-26.2 98.67-23.68 100.94-21.15 100.94-16.45L100.94-16.45 100.94 0 98.09 0 98.09-15.95Q98.09-19.85 96.42-21.75 94.74-23.65 91.54-23.65L91.54-23.65Q90.19-23.65 88.94-23.3 87.69-22.95 86.72-22.25 85.74-21.55 85.17-20.48 84.59-19.4 84.59-18L84.59-18 84.59 0 81.74 0ZM112.74 0L109.89 0 109.89-25.6 112.74-25.6 112.74-21.55 112.89-21.55Q113.74-23.55 115.54-24.88 117.34-26.2 120.44-26.2L120.44-26.2Q124.54-26.2 126.82-23.68 129.09-21.15 129.09-16.45L129.09-16.45 129.09 0 126.24 0 126.24-15.95Q126.24-19.85 124.57-21.75 122.89-23.65 119.69-23.65L119.69-23.65Q118.34-23.65 117.09-23.3 115.84-22.95 114.87-22.25 113.89-21.55 113.32-20.48 112.74-19.4 112.74-18L112.74-18 112.74 0ZM147.14 0.6L147.14 0.6Q144.59 0.6 142.54-0.3 140.49-1.2 139.04-2.93 137.59-4.65 136.79-7.15 135.99-9.65 135.99-12.8L135.99-12.8Q135.99-15.95 136.79-18.43 137.59-20.9 139.04-22.63 140.49-24.35 142.54-25.28 144.59-26.2 147.14-26.2L147.14-26.2Q149.69-26.2 151.74-25.28 153.79-24.35 155.24-22.63 156.69-20.9 157.49-18.43 158.29-15.95 158.29-12.8L158.29-12.8Q158.29-9.65 157.49-7.15 156.69-4.65 155.24-2.93 153.79-1.2 151.74-0.3 149.69 0.6 147.14 0.6ZM147.14-1.95L147.14-1.95Q150.89-1.95 153.06-4.3 155.24-6.65 155.24-11.2L155.24-11.2 155.24-14.4Q155.24-18.9 153.06-21.28 150.89-23.65 147.14-23.65L147.14-23.65Q143.39-23.65 141.21-21.3 139.04-18.95 139.04-14.4L139.04-14.4 139.04-11.2Q139.04-6.7 141.21-4.33 143.39-1.95 147.14-1.95ZM172.34 0L168.69 0Q167.14 0 166.34-0.85 165.54-1.7 165.54-3.1L165.54-3.1 165.54-37 168.39-37 168.39-2.5 172.34-2.5 172.34 0ZM187.83 0.6L187.83 0.6Q185.28 0.6 183.23-0.3 181.18-1.2 179.73-2.93 178.28-4.65 177.48-7.15 176.68-9.65 176.68-12.8L176.68-12.8Q176.68-15.95 177.48-18.43 178.28-20.9 179.73-22.63 181.18-24.35 183.23-25.28 185.28-26.2 187.83-26.2L187.83-26.2Q190.38-26.2 192.43-25.28 194.48-24.35 195.93-22.63 197.38-20.9 198.18-18.43 198.98-15.95 198.98-12.8L198.98-12.8Q198.98-9.65 198.18-7.15 197.38-4.65 195.93-2.93 194.48-1.2 192.43-0.3 190.38 0.6 187.83 0.6ZM187.83-1.95L187.83-1.95Q191.58-1.95 193.76-4.3 195.93-6.65 195.93-11.2L195.93-11.2 195.93-14.4Q195.93-18.9 193.76-21.28 191.58-23.65 187.83-23.65L187.83-23.65Q184.08-23.65 181.91-21.3 179.73-18.95 179.73-14.4L179.73-14.4 179.73-11.2Q179.73-6.7 181.91-4.33 184.08-1.95 187.83-1.95ZM227.23 3L227.23 3Q227.23 6.9 224.11 8.75 220.98 10.6 214.93 10.6L214.93 10.6Q209.08 10.6 206.48 8.9 203.88 7.2 203.88 4.2L203.88 4.2Q203.88 2 205.03 0.7 206.18-0.6 208.28-1.2L208.28-1.2 208.28-1.6Q205.88-2.55 205.88-5.1L205.88-5.1Q205.88-7 207.13-8 208.38-9 210.23-9.5L210.23-9.5 210.23-9.7Q207.98-10.7 206.73-12.7 205.48-14.7 205.48-17.5L205.48-17.5Q205.48-19.45 206.13-21.05 206.78-22.65 208.01-23.8 209.23-24.95 210.96-25.58 212.68-26.2 214.78-26.2L214.78-26.2Q217.73-26.2 219.93-24.95L219.93-24.95 219.93-26.2Q219.93-27.35 220.48-28.08 221.03-28.8 222.28-28.8L222.28-28.8 226.68-28.8 226.68-26.3 221.48-26.3 221.48-23.85Q222.78-22.7 223.48-21.08 224.18-19.45 224.18-17.5L224.18-17.5Q224.18-15.55 223.51-13.95 222.83-12.35 221.61-11.18 220.38-10 218.66-9.38 216.93-8.75 214.83-8.75L214.83-8.75Q214.13-8.75 213.48-8.85 212.83-8.95 212.18-9.05L212.18-9.05Q210.53-8.6 209.46-7.83 208.38-7.05 208.38-5.75L208.38-5.75Q208.38-3.45 212.48-3.45L212.48-3.45 218.43-3.45Q223.08-3.45 225.16-1.73 227.23 0 227.23 3ZM224.48 3.2L224.48 3.2Q224.48 1.35 223.16 0.28 221.83-0.8 218.43-0.8L218.43-0.8 210.13-0.8Q208.48-0.25 207.53 0.85 206.58 1.95 206.58 3.6L206.58 3.6Q206.58 5.6 208.23 6.93 209.88 8.25 213.23 8.25L213.23 8.25 216.43 8.25Q220.18 8.25 222.33 7.03 224.48 5.8 224.48 3.2ZM214.83-11.05L214.83-11.05Q217.78-11.05 219.46-12.53 221.13-14 221.13-16.7L221.13-16.7 221.13-18.3Q221.13-20.95 219.46-22.43 217.78-23.9 214.83-23.9L214.83-23.9Q211.83-23.9 210.18-22.43 208.53-20.95 208.53-18.3L208.53-18.3 208.53-16.7Q208.53-14 210.21-12.53 211.88-11.05 214.83-11.05ZM240.43-3.05L248.23-25.6 251.13-25.6 239.28 7.2Q238.68 8.8 237.83 9.4 236.98 10 235.03 10L235.03 10 232.13 10 232.13 7.5 236.43 7.5 238.88 0.75 229.38-25.6 232.38-25.6 240.23-3.05 240.43-3.05ZM281.47 0.6L281.47 0.6Q274.77 0.6 270.97-3.98 267.17-8.55 267.17-17.45L267.17-17.45Q267.17-26.35 270.97-30.93 274.77-35.5 281.47-35.5L281.47-35.5Q288.12-35.5 291.92-30.9 295.72-26.3 295.72-17.45L295.72-17.45Q295.72-8.6 291.92-4 288.12 0.6 281.47 0.6ZM281.47-2.1L281.47-2.1Q283.97-2.1 286-2.98 288.02-3.85 289.47-5.55 290.92-7.25 291.72-9.7 292.52-12.15 292.52-15.25L292.52-15.25 292.52-19.65Q292.52-22.75 291.72-25.2 290.92-27.65 289.47-29.33 288.02-31 286-31.9 283.97-32.8 281.47-32.8L281.47-32.8Q278.97-32.8 276.92-31.9 274.87-31 273.42-29.33 271.97-27.65 271.17-25.2 270.37-22.75 270.37-19.65L270.37-19.65 270.37-15.25Q270.37-12.15 271.17-9.7 271.97-7.25 273.42-5.55 274.87-3.85 276.92-2.98 278.97-2.1 281.47-2.1ZM306.37 0L303.52 0 303.52-25.6 306.37-25.6 306.37-21.55 306.52-21.55Q307.37-23.55 309.17-24.88 310.97-26.2 314.07-26.2L314.07-26.2Q318.17-26.2 320.45-23.68 322.72-21.15 322.72-16.45L322.72-16.45 322.72 0 319.87 0 319.87-15.95Q319.87-19.85 318.2-21.75 316.52-23.65 313.32-23.65L313.32-23.65Q311.97-23.65 310.72-23.3 309.47-22.95 308.5-22.25 307.52-21.55 306.95-20.48 306.37-19.4 306.37-18L306.37-18 306.37 0ZM354.67 0L351.67 0 351.67-14.15 339.62-34.9 343.02-34.9 353.12-17.3 353.27-17.3 363.37-34.9 366.77-34.9 354.67-14.3 354.67 0ZM378.91 0.6L378.91 0.6Q376.36 0.6 374.31-0.3 372.26-1.2 370.81-2.93 369.36-4.65 368.56-7.15 367.76-9.65 367.76-12.8L367.76-12.8Q367.76-15.95 368.56-18.43 369.36-20.9 370.81-22.63 372.26-24.35 374.31-25.28 376.36-26.2 378.91-26.2L378.91-26.2Q381.46-26.2 383.51-25.28 385.56-24.35 387.01-22.63 388.46-20.9 389.26-18.43 390.06-15.95 390.06-12.8L390.06-12.8Q390.06-9.65 389.26-7.15 388.46-4.65 387.01-2.93 385.56-1.2 383.51-0.3 381.46 0.6 378.91 0.6ZM378.91-1.95L378.91-1.95Q382.66-1.95 384.84-4.3 387.01-6.65 387.01-11.2L387.01-11.2 387.01-14.4Q387.01-18.9 384.84-21.28 382.66-23.65 378.91-23.65L378.91-23.65Q375.16-23.65 372.99-21.3 370.81-18.95 370.81-14.4L370.81-14.4 370.81-11.2Q370.81-6.7 372.99-4.33 375.16-1.95 378.91-1.95ZM413.31 0L413.31-4.05 413.11-4.05Q412.76-3.15 412.16-2.3 411.56-1.45 410.66-0.83 409.76-0.2 408.54 0.2 407.31 0.6 405.66 0.6L405.66 0.6Q401.56 0.6 399.26-1.93 396.96-4.45 396.96-9.15L396.96-9.15 396.96-25.6 399.81-25.6 399.81-9.7Q399.81-5.75 401.51-3.85 403.21-1.95 406.41-1.95L406.41-1.95Q407.76-1.95 408.99-2.3 410.21-2.65 411.19-3.35 412.16-4.05 412.74-5.13 413.31-6.2 413.31-7.65L413.31-7.65 413.31-25.6 416.16-25.6 416.16 0 413.31 0ZM428.31 0L425.46 0 425.46-25.6 428.31-25.6 428.31-21 428.51-21Q429.26-22.8 431.06-24.2 432.86-25.6 436.16-25.6L436.16-25.6 437.86-25.6 437.86-22.8 435.61-22.8Q432.41-22.8 430.36-21.4 428.31-20 428.31-17.5L428.31-17.5 428.31 0ZM477.55 0L477.55-16.4 458.4-16.4 458.4 0 455.4 0 455.4-34.9 458.4-34.9 458.4-19.05 477.55-19.05 477.55-34.9 480.55-34.9 480.55 0 477.55 0ZM510.65 0L507.75 0Q506.1 0 505.35-0.85 504.6-1.7 504.5-3.15L504.5-3.15 504.5-4.05 504.25-4.05Q503.4-1.9 501.45-0.65 499.5 0.6 496.5 0.6L496.5 0.6Q492.45 0.6 490.25-1.38 488.05-3.35 488.05-6.95L488.05-6.95Q488.05-10.35 490.48-12.35 492.9-14.35 498.45-14.35L498.45-14.35 504.35-14.35 504.35-17.35Q504.35-23.7 497.8-23.7L497.8-23.7Q495.25-23.7 493.55-22.63 491.85-21.55 490.8-19.55L490.8-19.55 489-21.05Q490.05-23.3 492.23-24.75 494.4-26.2 497.9-26.2L497.9-26.2Q502.4-26.2 504.8-23.95 507.2-21.7 507.2-17.65L507.2-17.65 507.2-2.5 510.65-2.5 510.65 0ZM496.9-1.85L496.9-1.85Q498.45-1.85 499.8-2.25 501.15-2.65 502.18-3.38 503.2-4.1 503.78-5.13 504.35-6.15 504.35-7.45L504.35-7.45 504.35-12.2 498.35-12.2Q494.5-12.2 492.78-10.98 491.05-9.75 491.05-7.6L491.05-7.6 491.05-6.4Q491.05-4.15 492.65-3 494.25-1.85 496.9-1.85ZM519.35 0L516.5 0 516.5-25.6 519.35-25.6 519.35-21.55 519.5-21.55Q520.35-23.55 522.15-24.88 523.95-26.2 527.05-26.2L527.05-26.2Q531.15-26.2 533.42-23.68 535.7-21.15 535.7-16.45L535.7-16.45 535.7 0 532.85 0 532.85-15.95Q532.85-19.85 531.17-21.75 529.5-23.65 526.3-23.65L526.3-23.65Q524.95-23.65 523.7-23.3 522.45-22.95 521.47-22.25 520.5-21.55 519.92-20.48 519.35-19.4 519.35-18L519.35-18 519.35 0ZM561.2 0L561.2-4.1 561.05-4.1Q560.05-1.95 558.12-0.68 556.2 0.6 553.25 0.6L553.25 0.6Q548.3 0.6 545.5-2.9 542.7-6.4 542.7-12.8L542.7-12.8Q542.7-19.2 545.5-22.7 548.3-26.2 553.25-26.2L553.25-26.2Q556.2-26.2 558.15-24.93 560.1-23.65 561.05-21.5L561.05-21.5 561.2-21.5 561.2-37 564.05-37 564.05 0 561.2 0ZM553.9-1.95L553.9-1.95Q555.4-1.95 556.72-2.35 558.05-2.75 559.05-3.53 560.05-4.3 560.62-5.38 561.2-6.45 561.2-7.8L561.2-7.8 561.2-17.95Q561.2-19.2 560.62-20.25 560.05-21.3 559.05-22.05 558.05-22.8 556.72-23.23 555.4-23.65 553.9-23.65L553.9-23.65Q550.05-23.65 547.9-21.2 545.75-18.75 545.75-14.6L545.75-14.6 545.75-11Q545.75-6.85 547.9-4.4 550.05-1.95 553.9-1.95Z" opacity="1" transform="matrix(1,0,0,1,0,0)" fill="#ffffff" class="undefined-text-1" data-fill-palette-color="secondary" id="text-1"></path></svg></g></svg></g></svg></g></svg></g></svg></g></svg></g><g mask="url(#04334187-3abe-421e-8b43-1c82cc085bc7)"><g transform="matrix(3.961228421458914, 0, 0, 3.961228421458914, 19.504721034348847, 1)"><svg xmlns="http://www.w3.org/2000/svg" xmlns:xlink="http://www.w3.org/1999/xlink" version="1.1" x="0" y="0" viewBox="5 19.000003814697266 90 61.89999008178711" enable-background="new 0 0 100 100" xml:space="preserve" height="61.89999008178711" width="90" class="icon-none" data-fill-palette-color="accent" id="none"><path fill-rule="evenodd" clip-rule="evenodd" d="M16.7 42.3l1.3 2.4 1.2-0.4-0.4-2.6c0.6-0.3 1.1-0.6 1.5-1l2.3 1.4 0.8-1-1.7-2.1c0.3-0.5 0.6-1.1 0.8-1.7l2.7 0.1 0.2-1.3-2.5-0.9c0-0.1 0-0.3 0-0.4 0-0.5-0.1-1-0.1-1.5l2.4-1.3-0.4-1.2-2.6 0.4c-0.3-0.6-0.6-1.1-1-1.5l1.4-2.3-1-0.8-2.1 1.7c-0.5-0.3-1.1-0.6-1.7-0.8l0.1-2.7-1.3-0.2L15.6 27c-0.1 0-0.3 0-0.4 0-0.5 0-1 0.1-1.5 0.1l-1.3-2.4-1.2 0.4 0.4 2.6c-0.6 0.3-1.1 0.6-1.5 1l-2.3-1.4-0.8 1 1.7 2.1c-0.3 0.5-0.6 1.1-0.8 1.7l-2.7-0.1L5 33.4l2.5 0.9c0 0.1 0 0.3 0 0.4 0 0.5 0.1 1 0.1 1.5l-2.4 1.3 0.4 1.2 2.6-0.4c0.3 0.6 0.6 1.1 1 1.5L8 42l1 0.8 2.1-1.7c0.5 0.3 1.1 0.6 1.7 0.8l-0.1 2.7 1.3 0.2 0.9-2.5c0.1 0 0.3 0 0.4 0C15.7 42.4 16.2 42.3 16.7 42.3zM21 35.3l-3.2-0.7c0-1-0.6-1.8-1.4-2.2l0.7-3.2c2.3 0.8 4 2.9 4 5.5C21 34.9 21 35.1 21 35.3zM15.2 36c-0.7 0-1.3-0.6-1.3-1.3s0.6-1.3 1.3-1.3c0.7 0 1.3 0.6 1.3 1.3S15.9 36 15.2 36zM15.8 28.9l-0.7 3.2c-1 0-1.8 0.6-2.2 1.4l-3.2-0.7c0.8-2.3 2.9-4 5.5-4C15.4 28.9 15.6 28.9 15.8 28.9zM9.5 34.1l3.2 0.7c0 1 0.6 1.8 1.4 2.2l-0.7 3.2c-2.3-0.8-4-2.9-4-5.5C9.4 34.5 9.4 34.3 9.5 34.1zM14.6 40.4l0.7-3.2c1 0 1.8-0.6 2.2-1.4l3.2 0.7c-0.8 2.3-2.9 4-5.5 4C15 40.5 14.8 40.5 14.6 40.4z" fill="#ffffff" data-fill-palette-color="accent"></path><path fill-rule="evenodd" clip-rule="evenodd" d="M58.5 54.1l3.5-2.2-0.8-2.4-4.1 0.3c-0.2-0.4-0.4-0.9-0.7-1.3l2.6-3.2-1.5-2.1-3.8 1.5c-0.3-0.4-0.7-0.7-1-1l1.5-3.8-2.1-1.5L49 41c-0.4-0.2-0.9-0.5-1.3-0.7l0.3-4.1-2.4-0.8-2.2 3.5c-0.5-0.1-1-0.2-1.5-0.2l-1-4h-2.6l-1 4c-0.5 0.1-1 0.1-1.5 0.2l-2.2-3.5-2.4 0.8 0.3 4.1c-0.4 0.2-0.9 0.4-1.3 0.7L27 38.4 25 39.9l1.5 3.8c-0.4 0.3-0.7 0.7-1 1l-3.8-1.5-1.5 2.1 2.6 3.2c-0.2 0.4-0.5 0.9-0.7 1.3L18 49.4l-0.8 2.4 3.5 2.2c-0.1 0.5-0.2 1-0.2 1.5l-4 1v2.6l4 1c0.1 0.5 0.1 1 0.2 1.5l-3.5 2.2 0.8 2.4 4.1-0.3c0.2 0.4 0.4 0.9 0.7 1.3l-2.6 3.2 1.5 2.1 3.8-1.5c0.3 0.4 0.7 0.7 1 1L25 75.7l2.1 1.5 3.2-2.6c0.4 0.2 0.9 0.5 1.3 0.7l-0.3 4.1 2.4 0.8 2.2-3.5c0.5 0.1 1 0.2 1.5 0.2l1 4h2.6l1-4c0.5-0.1 1-0.1 1.5-0.2l2.2 3.5 2.4-0.8-0.3-4.1c0.4-0.2 0.9-0.4 1.3-0.7l3.2 2.6 2.1-1.5-1.5-3.8c0.4-0.3 0.7-0.7 1-1l3.8 1.5 1.5-2.1-2.6-3.2c0.2-0.4 0.5-0.9 0.7-1.3l4.1 0.3 0.8-2.4-3.5-2.2c0.1-0.5 0.2-1 0.2-1.5l4-1 0-2.6-4-1C58.6 55 58.6 54.5 58.5 54.1zM39.6 69.4c-6.4 0-11.6-5.2-11.6-11.6 0-6.4 5.2-11.6 11.6-11.6s11.6 5.2 11.6 11.6C51.1 64.2 46 69.4 39.6 69.4zM39.6 43.7c-2.6 0-4.9 0.7-7 1.9l-1.5-2.1c2.5-1.5 5.4-2.3 8.5-2.3 5.2 0 9.8 2.4 12.9 6.1l-2.1 1.5C47.8 45.6 43.9 43.7 39.6 43.7zM29 44.9l1.5 2.1c-3.1 2.6-5 6.5-5 10.8 0 2.5 0.7 4.9 1.9 7l-2.1 1.5c-1.5-2.5-2.3-5.4-2.3-8.5C22.9 52.6 25.3 48 29 44.9zM28.8 66.9c2.6 3.1 6.5 5 10.8 5 2.6 0 4.9-0.7 7-1.9l1.5 2.1c-2.5 1.5-5.4 2.3-8.5 2.3-5.2 0-9.8-2.4-12.9-6.1L28.8 66.9zM50.2 70.7l-1.5-2.1c3.1-2.6 5-6.5 5-10.8 0-2.6-0.7-4.9-1.9-7l2.1-1.5c1.5 2.5 2.3 5.4 2.3 8.5C56.3 63 53.9 67.6 50.2 70.7z" fill="#ffffff" data-fill-palette-color="accent"></path><path fill-rule="evenodd" clip-rule="evenodd" d="M95 38.5l0-2.6-3-1c-0.2-1.2-0.5-2.3-0.9-3.4l2.1-2.3-1.3-2.2-3 0.6c-0.7-0.9-1.6-1.7-2.5-2.5l0.6-3-2.2-1.3-2.3 2.1c-1.1-0.4-2.2-0.7-3.4-0.9l-1-3h-2.6l-1 3c-1.2 0.2-2.3 0.5-3.4 0.9l-2.3-2.1-2.2 1.3 0.6 3c-0.9 0.7-1.7 1.6-2.5 2.5l-3-0.6-1.3 2.2 2.1 2.3c-0.4 1.1-0.7 2.2-0.9 3.4l-3 1v2.6l3 1c0.2 1.2 0.5 2.3 0.9 3.4l-2.1 2.3 1.3 2.2 3-0.6c0.7 0.9 1.6 1.7 2.5 2.5l-0.6 3 2.2 1.3 2.3-2.1c1.1 0.4 2.2 0.7 3.4 0.9l1 3 2.6 0 1-3c1.2-0.2 2.3-0.5 3.4-0.9l2.3 2.1 2.2-1.3-0.6-3c0.9-0.7 1.7-1.6 2.5-2.5l3 0.6 1.3-2.2-2.1-2.3c0.4-1.1 0.7-2.2 0.9-3.4L95 38.5zM76.8 45c-4.2 0-7.7-3.5-7.7-7.7s3.5-7.7 7.7-7.7c4.2 0 7.7 3.5 7.7 7.7S81.1 45 76.8 45z" fill="#ffffff" data-fill-palette-color="accent"></path></svg></g></g></svg></g><defs><mask id="04334187-3abe-421e-8b43-1c82cc085bc7"><rect width="640" height="400" fill="white"></rect><rect width="348.0576" height="61.3390913820933" fill="black" y="92.93045430895334" x="23.7312" id="transform-me"></rect></mask></defs></svg><rect width="395.52" height="247.2" fill="none" stroke="none" visibility="hidden"></rect></g></svg></g></svg>